<svg xmlns="http://www.w3.org/2000/svg">
    <symbol id="error-fill" viewBox="0 0 24 24" fill="none" xmlns="http://www.w3.org/2000/svg">
        <path d="M12 2C6.49 2 2 6.49 2 12C2 17.51 6.49 22 12 22C17.51 22 22 17.51 22 12C22 6.49 17.51 2 12 2ZM11.25 8C11.25 7.59 11.59 7.25 12 7.25C12.41 7.25 12.75 7.59 12.75 8V13C12.75 13.41 12.41 13.75 12 13.75C11.59 13.75 11.25 13.41 11.25 13V8ZM12.92 16.38C12.87 16.51 12.8 16.61 12.71 16.71C12.61 16.8 12.5 16.87 12.38 16.92C12.26 16.97 12.13 17 12 17C11.87 17 11.74 16.97 11.62 16.92C11.5 16.87 11.39 16.8 11.29 16.71C11.2 16.61 11.13 16.51 11.08 16.38C11.03 16.26 11 16.13 11 16C11 15.87 11.03 15.74 11.08 15.62C11.13 15.5 11.2 15.39 11.29 15.29C11.39 15.2 11.5 15.13 11.62 15.08C11.86 14.98 12.14 14.98 12.38 15.08C12.5 15.13 12.61 15.2 12.71 15.29C12.8 15.39 12.87 15.5 12.92 15.62C12.97 15.74 13 15.87 13 16C13 16.13 12.97 16.26 12.92 16.38Z" fill="currentColor"/>
    </symbol>
    <symbol id="flower-fill" viewBox="0 0 24 24" fill="none" xmlns="http://www.w3.org/2000/svg">
        <path opacity="0.4" d="M22 12C22 14.76 19.76 17 17 17C17 14.24 14.76 12 12 12C14.76 12 17 9.76 17 7C19.76 7 22 9.24 22 12Z" fill="currentColor"/>
        <path d="M17 17C14.24 17 12 14.76 12 12C14.76 12 17 14.24 17 17Z" fill="currentColor"/>
        <path opacity="0.4" d="M17 17C17 19.76 14.76 22 12 22C9.24 22 7 19.76 7 17C9.76 17 12 14.76 12 12C12 14.76 14.24 17 17 17Z" fill="currentColor"/>
        <path d="M17 7C17 9.76 14.76 12 12 12C12 9.24 14.24 7 17 7Z" fill="currentColor"/>
        <path opacity="0.4" d="M17 7C14.24 7 12 9.24 12 12C12 9.24 9.76 7 7 7C7 4.24 9.24 2 12 2C14.76 2 17 4.24 17 7Z" fill="currentColor"/>
        <path d="M12 12C12 14.76 9.76 17 7 17C7 14.24 9.24 12 12 12Z" fill="currentColor"/>
        <path d="M12 12C9.24 12 7 9.76 7 7C9.76 7 12 9.24 12 12Z" fill="currentColor"/>
        <path opacity="0.4" d="M12 12C9.24 12 7 14.24 7 17C4.24 17 2 14.76 2 12C2 9.24 4.24 7 7 7C7 9.76 9.24 12 12 12Z" fill="currentColor"/>
    </symbol>
    <symbol id="bag-fill" viewBox="0 0 24 24" fill="none" xmlns="http://www.w3.org/2000/svg">
        <path opacity="0.4" d="M16.19 8.85999C15.8 8.85999 15.49 8.54999 15.49 8.15999V6.87999C15.49 5.89999 15.07 4.95999 14.35 4.29999C13.61 3.62999 12.66 3.31999 11.66 3.40999C9.97999 3.56999 8.50999 5.27999 8.50999 7.05999V7.95999C8.50999 8.34999 8.19999 8.65999 7.80999 8.65999C7.41999 8.65999 7.10999 8.34999 7.10999 7.95999V7.05999C7.10999 4.55999 9.12999 2.24999 11.52 2.01999C12.91 1.88999 14.25 2.32999 15.28 3.26999C16.3 4.18999 16.88 5.50999 16.88 6.87999V8.15999C16.88 8.54999 16.57 8.85999 16.19 8.85999Z" fill="currentColor"/>
        <path d="M19.96 8.95999C19.12 8.02999 17.74 7.57999 15.72 7.57999H8.27999C6.25999 7.57999 4.87999 8.02999 4.03999 8.95999C3.06999 10.04 3.09999 11.48 3.20999 12.48L3.90999 18.05C4.11999 20 4.90999 22 9.20999 22H14.79C19.09 22 19.88 20 20.09 18.06L20.79 12.47C20.9 11.48 20.92 10.04 19.96 8.95999ZM8.41999 13.15H8.40999C7.85999 13.15 7.40999 12.7 7.40999 12.15C7.40999 11.6 7.85999 11.15 8.40999 11.15C8.96999 11.15 9.41999 11.6 9.41999 12.15C9.41999 12.7 8.96999 13.15 8.41999 13.15ZM15.42 13.15H15.41C14.86 13.15 14.41 12.7 14.41 12.15C14.41 11.6 14.86 11.15 15.41 11.15C15.97 11.15 16.42 11.6 16.42 12.15C16.42 12.7 15.97 13.15 15.42 13.15Z" fill="currentColor"/>
    </symbol>
    <symbol id="arrow-left-fill" viewBox="0 0 24 24" fill="none" xmlns="http://www.w3.org/2000/svg">
        <path d="M15.2 10.49L13.23 8.52L10.02 5.31C9.33999 4.64 8.17999 5.12 8.17999 6.08V12.31V17.92C8.17999 18.88 9.33999 19.36 10.02 18.68L15.2 13.5C16.03 12.68 16.03 11.32 15.2 10.49Z" fill="currentColor"/>
    </symbol>
    <symbol id="arrow-bottom-fill" viewBox="0 0 24 24" fill="none" xmlns="http://www.w3.org/2000/svg">
        <path d="M17.9188 8.17969H11.6888H6.07877C5.11877 8.17969 4.63877 9.33969 5.31877 10.0197L10.4988 15.1997C11.3288 16.0297 12.6788 16.0297 13.5088 15.1997L15.4788 13.2297L18.6888 10.0197C19.3588 9.33969 18.8788 8.17969 17.9188 8.17969Z" fill="currentColor"/>
    </symbol>
    <symbol id="coin-fill" viewBox="0 0 24 24" fill="none" xmlns="http://www.w3.org/2000/svg">
        <path d="M11.97 2C6.44997 2 1.96997 6.48 1.96997 12C1.96997 17.52 6.44997 22 11.97 22C17.49 22 21.97 17.52 21.97 12C21.97 6.48 17.5 2 11.97 2ZM15.72 12.35L12 16.58L11.56 17.08C10.95 17.77 10.45 17.59 10.45 16.66V12.7H8.74997C7.97997 12.7 7.76997 12.23 8.27997 11.65L12 7.42L12.44 6.92C13.05 6.23 13.55 6.41 13.55 7.34V11.3H15.25C16.02 11.3 16.23 11.77 15.72 12.35Z" fill="currentColor"/>
    </symbol>
    <symbol id="settings" viewBox="0 0 24 24" fill="none" xmlns="http://www.w3.org/2000/svg">
        <path opacity="0.4" d="M2 12.88V11.12C2 10.08 2.85 9.22 3.9 9.22C5.71 9.22 6.45 7.94 5.54 6.37C5.02 5.47 5.33 4.3 6.24 3.78L7.97 2.79C8.76 2.32 9.78 2.6 10.25 3.39L10.36 3.58C11.26 5.15 12.74 5.15 13.65 3.58L13.76 3.39C14.23 2.6 15.25 2.32 16.04 2.79L17.77 3.78C18.68 4.3 18.99 5.47 18.47 6.37C17.56 7.94 18.3 9.22 20.11 9.22C21.15 9.22 22.01 10.07 22.01 11.12V12.88C22.01 13.92 21.16 14.78 20.11 14.78C18.3 14.78 17.56 16.06 18.47 17.63C18.99 18.54 18.68 19.7 17.77 20.22L16.04 21.21C15.25 21.68 14.23 21.4 13.76 20.61L13.65 20.42C12.75 18.85 11.27 18.85 10.36 20.42L10.25 20.61C9.78 21.4 8.76 21.68 7.97 21.21L6.24 20.22C5.33 19.7 5.02 18.53 5.54 17.63C6.45 16.06 5.71 14.78 3.9 14.78C2.85 14.78 2 13.92 2 12.88Z" fill="currentColor"/>
        <path d="M12 15.25C13.7949 15.25 15.25 13.7949 15.25 12C15.25 10.2051 13.7949 8.75 12 8.75C10.2051 8.75 8.75 10.2051 8.75 12C8.75 13.7949 10.2051 15.25 12 15.25Z" fill="currentColor"/>
    </symbol>
    <symbol id="logout" viewBox="0 0 24 24" fill="none" xmlns="http://www.w3.org/2000/svg">
        <path opacity="0.4" d="M15 7.2V16.79C15 20 13 22 9.8 22H7.21C4.01 22 2.01 20 2.01 16.8V7.2C2 4 4 2 7.2 2H9.8C13 2 15 4 15 7.2Z" fill="currentColor"/>
        <path d="M18.43 8.12L21.78 11.47C22.07 11.76 22.07 12.24 21.78 12.53L18.43 15.88C18.14 16.17 17.66 16.17 17.37 15.88C17.08 15.59 17.08 15.11 17.37 14.82L19.44 12.75H8.75C8.34 12.75 8 12.41 8 12C8 11.59 8.34 11.25 8.75 11.25H19.44L17.37 9.18C17.22 9.03 17.15 8.84 17.15 8.65C17.15 8.46 17.22 8.26 17.37 8.12C17.66 7.82 18.13 7.82 18.43 8.12Z" fill="currentColor"/>
    </symbol>
    <symbol id="people" viewBox="0 0 24 24" fill="none" xmlns="http://www.w3.org/2000/svg">
        <path opacity="0.4" d="M9 2C6.38 2 4.25 4.13 4.25 6.75C4.25 9.32 6.26 11.4 8.88 11.49C8.96 11.48 9.04 11.48 9.1 11.49C9.12 11.49 9.13 11.49 9.15 11.49C9.16 11.49 9.16 11.49 9.17 11.49C11.73 11.4 13.74 9.32 13.75 6.75C13.75 4.13 11.62 2 9 2Z" fill="currentColor"/>
        <path d="M14.08 14.15C11.29 12.29 6.73999 12.29 3.92999 14.15C2.65999 15 1.95999 16.15 1.95999 17.38C1.95999 18.61 2.65999 19.75 3.91999 20.59C5.31999 21.53 7.15999 22 8.99999 22C10.84 22 12.68 21.53 14.08 20.59C15.34 19.74 16.04 18.6 16.04 17.36C16.03 16.13 15.34 14.99 14.08 14.15Z" fill="currentColor"/>
        <path opacity="0.4" d="M19.99 7.34001C20.15 9.28001 18.77 10.98 16.86 11.21C16.85 11.21 16.85 11.21 16.84 11.21H16.81C16.75 11.21 16.69 11.21 16.64 11.23C15.67 11.28 14.78 10.97 14.11 10.4C15.14 9.48001 15.73 8.10001 15.61 6.60001C15.54 5.79001 15.26 5.05001 14.84 4.42001C15.22 4.23001 15.66 4.11001 16.11 4.07001C18.07 3.90001 19.82 5.36001 19.99 7.34001Z" fill="currentColor"/>
        <path d="M21.99 16.59C21.91 17.56 21.29 18.4 20.25 18.97C19.25 19.52 17.99 19.78 16.74 19.75C17.46 19.1 17.88 18.29 17.96 17.43C18.06 16.19 17.47 15 16.29 14.05C15.62 13.52 14.84 13.1 13.99 12.79C16.2 12.15 18.98 12.58 20.69 13.96C21.61 14.7 22.08 15.63 21.99 16.59Z" fill="currentColor"/>
    </symbol>
    <symbol id="home-fill" viewBox="0 0 24 24" fill="none" xmlns="http://www.w3.org/2000/svg">
        <path d="M20.04 6.82L14.28 2.79C12.71 1.69 10.3 1.75 8.78999 2.92L3.77999 6.83C2.77999 7.61 1.98999 9.21 1.98999 10.47V17.37C1.98999 19.92 4.05999 22 6.60999 22H17.39C19.94 22 22.01 19.93 22.01 17.38V10.6C22.01 9.25 21.14 7.59 20.04 6.82ZM12.75 18C12.75 18.41 12.41 18.75 12 18.75C11.59 18.75 11.25 18.41 11.25 18V15C11.25 14.59 11.59 14.25 12 14.25C12.41 14.25 12.75 14.59 12.75 15V18Z" fill="currentColor"/>
    </symbol>
    <symbol id="bell-fill" viewBox="0 0 24 24" fill="none" xmlns="http://www.w3.org/2000/svg">
        <path d="M19.34 14.49L18.34 12.83C18.13 12.46 17.94 11.76 17.94 11.35V8.81999C17.94 5.55999 15.29 2.89999 12.02 2.89999C8.75 2.89999 6.1 5.55999 6.1 8.81999V11.35C6.1 11.76 5.91 12.46 5.7 12.82L4.69 14.49C4.29 15.16 4.2 15.9 4.45 16.58C4.69 17.25 5.26 17.77 6 18.02C7.94 18.68 9.98 19 12.02 19C14.06 19 16.1 18.68 18.04 18.03C18.74 17.8 19.28 17.27 19.54 16.58C19.8 15.89 19.73 15.13 19.34 14.49Z" fill="currentColor"/>
        <path d="M14.25 3.32C13.56 3.05 12.81 2.9 12.02 2.9C11.24 2.9 10.49 3.04 9.79999 3.32C10.23 2.51 11.08 2 12.02 2C12.97 2 13.81 2.51 14.25 3.32Z" fill="currentColor"/>
        <path opacity="0.4" d="M14.83 20.01C14.41 21.17 13.3 22 12 22C11.21 22 10.43 21.68 9.87999 21.11C9.55999 20.81 9.31999 20.41 9.17999 20C9.30999 20.02 9.43999 20.03 9.57999 20.05C9.80999 20.08 10.05 20.11 10.29 20.13C10.86 20.18 11.44 20.21 12.02 20.21C12.59 20.21 13.16 20.18 13.72 20.13C13.93 20.11 14.14 20.1 14.34 20.07C14.5 20.05 14.66 20.03 14.83 20.01Z" fill="currentColor"/>
    </symbol>
    <symbol id="sun-fill" viewBox="0 0 24 24" fill="none" xmlns="http://www.w3.org/2000/svg">
        <path d="M12 19C15.866 19 19 15.866 19 12C19 8.13401 15.866 5 12 5C8.13401 5 5 8.13401 5 12C5 15.866 8.13401 19 12 19Z" fill="currentColor"/>
        <path d="M12 22.96C11.45 22.96 11 22.55 11 22V21.92C11 21.37 11.45 20.92 12 20.92C12.55 20.92 13 21.37 13 21.92C13 22.47 12.55 22.96 12 22.96ZM19.14 20.14C18.88 20.14 18.63 20.04 18.43 19.85L18.3 19.72C17.91 19.33 17.91 18.7 18.3 18.31C18.69 17.92 19.32 17.92 19.71 18.31L19.84 18.44C20.23 18.83 20.23 19.46 19.84 19.85C19.65 20.04 19.4 20.14 19.14 20.14ZM4.86 20.14C4.6 20.14 4.35 20.04 4.15 19.85C3.76 19.46 3.76 18.83 4.15 18.44L4.28 18.31C4.67 17.92 5.3 17.92 5.69 18.31C6.08 18.7 6.08 19.33 5.69 19.72L5.56 19.85C5.37 20.04 5.11 20.14 4.86 20.14ZM22 13H21.92C21.37 13 20.92 12.55 20.92 12C20.92 11.45 21.37 11 21.92 11C22.47 11 22.96 11.45 22.96 12C22.96 12.55 22.55 13 22 13ZM2.08 13H2C1.45 13 1 12.55 1 12C1 11.45 1.45 11 2 11C2.55 11 3.04 11.45 3.04 12C3.04 12.55 2.63 13 2.08 13ZM19.01 5.99C18.75 5.99 18.5 5.89 18.3 5.7C17.91 5.31 17.91 4.68 18.3 4.29L18.43 4.16C18.82 3.77 19.45 3.77 19.84 4.16C20.23 4.55 20.23 5.18 19.84 5.57L19.71 5.7C19.52 5.89 19.27 5.99 19.01 5.99ZM4.99 5.99C4.73 5.99 4.48 5.89 4.28 5.7L4.15 5.56C3.76 5.17 3.76 4.54 4.15 4.15C4.54 3.76 5.17 3.76 5.56 4.15L5.69 4.28C6.08 4.67 6.08 5.3 5.69 5.69C5.5 5.89 5.24 5.99 4.99 5.99ZM12 3.04C11.45 3.04 11 2.63 11 2.08V2C11 1.45 11.45 1 12 1C12.55 1 13 1.45 13 2C13 2.55 12.55 3.04 12 3.04Z" fill="currentColor"/>
    </symbol>
    <symbol id="moon-fill" viewBox="0 0 24 24" fill="none" xmlns="http://www.w3.org/2000/svg">
        <path d="M21.53 15.93C21.37 15.66 20.92 15.24 19.8 15.44C19.18 15.55 18.55 15.6 17.92 15.57C15.59 15.47 13.48 14.4 12.01 12.75C10.71 11.3 9.91001 9.40999 9.90001 7.36999C9.90001 6.22999 10.12 5.12999 10.57 4.08999C11.01 3.07999 10.7 2.54999 10.48 2.32999C10.25 2.09999 9.71001 1.77999 8.65001 2.21999C4.56001 3.93999 2.03001 8.03999 2.33001 12.43C2.63001 16.56 5.53001 20.09 9.37001 21.42C10.29 21.74 11.26 21.93 12.26 21.97C12.42 21.98 12.58 21.99 12.74 21.99C16.09 21.99 19.23 20.41 21.21 17.72C21.88 16.79 21.7 16.2 21.53 15.93Z" fill="currentColor"/>
    </symbol>
    <symbol id="group-add-fill" viewBox="0 0 24 24" fill="none" xmlns="http://www.w3.org/2000/svg">
        <path d="M20.5 16.75H18.25V14.5C18.25 14.09 17.91 13.75 17.5 13.75C17.09 13.75 16.75 14.09 16.75 14.5V16.75H14.5C14.09 16.75 13.75 17.09 13.75 17.5C13.75 17.91 14.09 18.25 14.5 18.25H16.75V20.5C16.75 20.91 17.09 21.25 17.5 21.25C17.91 21.25 18.25 20.91 18.25 20.5V18.25H20.5C20.91 18.25 21.25 17.91 21.25 17.5C21.25 17.09 20.91 16.75 20.5 16.75Z" fill="currentColor"/>
        <path d="M22 8.52V3.98C22 2.57 21.36 2 19.77 2H15.73C14.14 2 13.5 2.57 13.5 3.98V8.51C13.5 9.93 14.14 10.49 15.73 10.49H19.77C21.36 10.5 22 9.93 22 8.52Z" fill="currentColor"/>
        <path d="M10.5 8.52V3.98C10.5 2.57 9.86 2 8.27 2H4.23C2.64 2 2 2.57 2 3.98V8.51C2 9.93 2.64 10.49 4.23 10.49H8.27C9.86 10.5 10.5 9.93 10.5 8.52Z" fill="currentColor"/>
        <path d="M10.5 19.77V15.73C10.5 14.14 9.86 13.5 8.27 13.5H4.23C2.64 13.5 2 14.14 2 15.73V19.77C2 21.36 2.64 22 4.23 22H8.27C9.86 22 10.5 21.36 10.5 19.77Z" fill="currentColor"/>
    </symbol>
    <symbol id="edit-line" viewBox="0 0 24 24" fill="none" xmlns="http://www.w3.org/2000/svg">
        <path d="M15 22.75H9C3.57 22.75 1.25 20.43 1.25 15V9C1.25 3.57 3.57 1.25 9 1.25H11C11.41 1.25 11.75 1.59 11.75 2C11.75 2.41 11.41 2.75 11 2.75H9C4.39 2.75 2.75 4.39 2.75 9V15C2.75 19.61 4.39 21.25 9 21.25H15C19.61 21.25 21.25 19.61 21.25 15V13C21.25 12.59 21.59 12.25 22 12.25C22.41 12.25 22.75 12.59 22.75 13V15C22.75 20.43 20.43 22.75 15 22.75Z" fill="currentColor"/>
        <path d="M8.50002 17.69C7.89002 17.69 7.33002 17.47 6.92002 17.07C6.43002 16.58 6.22002 15.87 6.33002 15.12L6.76002 12.11C6.84002 11.53 7.22002 10.78 7.63002 10.37L15.51 2.49C17.5 0.499998 19.52 0.499998 21.51 2.49C22.6 3.58 23.09 4.69 22.99 5.8C22.9 6.7 22.42 7.58 21.51 8.48L13.63 16.36C13.22 16.77 12.47 17.15 11.89 17.23L8.88002 17.66C8.75002 17.69 8.62002 17.69 8.50002 17.69ZM16.57 3.55L8.69002 11.43C8.50002 11.62 8.28002 12.06 8.24002 12.32L7.81002 15.33C7.77002 15.62 7.83002 15.86 7.98002 16.01C8.13002 16.16 8.37002 16.22 8.66002 16.18L11.67 15.75C11.93 15.71 12.38 15.49 12.56 15.3L20.44 7.42C21.09 6.77 21.43 6.19 21.48 5.65C21.54 5 21.2 4.31 20.44 3.54C18.84 1.94 17.74 2.39 16.57 3.55Z" fill="currentColor"/>
        <path d="M19.85 9.83C19.78 9.83 19.71 9.82 19.65 9.8C17.02 9.06 14.93 6.97 14.19 4.34C14.08 3.94 14.31 3.53 14.71 3.41C15.11 3.3 15.52 3.53 15.63 3.93C16.23 6.06 17.92 7.75 20.05 8.35C20.45 8.46 20.68 8.88 20.57 9.28C20.48 9.62 20.18 9.83 19.85 9.83Z" fill="currentColor"/>
    </symbol>
    <symbol id="close-line" viewBox="0 0 24 24" fill="none" xmlns="http://www.w3.org/2000/svg">
        <path d="M16.3078 17.6381L5.66516 6.99549C5.30153 6.63187 5.30153 6.02879 5.66516 5.66516C6.02878 5.30154 6.63186 5.30154 6.99549 5.66516L17.6381 16.3078C18.0017 16.6714 18.0017 17.2745 17.6381 17.6381C17.2745 18.0017 16.6714 18.0017 16.3078 17.6381Z" fill="currentColor"/>
        <path d="M5.66517 17.6381C5.30155 17.2745 5.30155 16.6714 5.66517 16.3078L16.3078 5.66516C16.6714 5.30154 17.2745 5.30154 17.6381 5.66516C18.0017 6.02879 18.0017 6.63187 17.6381 6.99549L6.9955 17.6381C6.63188 18.0017 6.02879 18.0017 5.66517 17.6381Z" fill="currentColor"/>
    </symbol>
    <symbol id="comfirm-line" viewBox="0 0 24 24" fill="none" xmlns="http://www.w3.org/2000/svg">
        <path d="M15 22.75H9C3.57 22.75 1.25 20.43 1.25 15V9C1.25 3.57 3.57 1.25 9 1.25H15C20.43 1.25 22.75 3.57 22.75 9V15C22.75 20.43 20.43 22.75 15 22.75ZM9 2.75C4.39 2.75 2.75 4.39 2.75 9V15C2.75 19.61 4.39 21.25 9 21.25H15C19.61 21.25 21.25 19.61 21.25 15V9C21.25 4.39 19.61 2.75 15 2.75H9Z" fill="currentColor"/>
        <path d="M10.5795 15.5801C10.3795 15.5801 10.1895 15.5001 10.0495 15.3601L7.21945 12.5301C6.92945 12.2401 6.92945 11.7601 7.21945 11.4701C7.50945 11.1801 7.98945 11.1801 8.27945 11.4701L10.5795 13.7701L15.7195 8.6301C16.0095 8.3401 16.4895 8.3401 16.7795 8.6301C17.0695 8.9201 17.0695 9.4001 16.7795 9.6901L11.1095 15.3601C10.9695 15.5001 10.7795 15.5801 10.5795 15.5801Z" fill="currentColor"/>
    </symbol>
    <symbol id="eeta" viewBox="0 0 24 24" fill="none" xmlns="http://www.w3.org/2000/svg">
        <path d="M13.0712 0.281371C12.611 0.284821 12.1223 0.313448 11.6044 0.366936C0.75874 1.48722 -5.89508 21.9718 7.34684 22.9807C17.2817 23.7376 16.3158 17.082 24 11.532L23.7156 9.73363C16.014 15.5681 15.869 18.6942 9.56897 17.539C9.16111 18.5573 8.68117 19.5129 9.53343 20.4946C7.23138 20.3288 5.34424 18.3954 5.24924 15.8208C0.390813 12.632 7.25719 4.06793 14.3488 5.47603C22.207 7.59519 6.62837 14.5886 8.52996 7.79429C8.52996 7.79429 4.50811 9.82853 7.44125 12.7144C5.4543 14.4175 6.02199 18.344 8.24552 19.2902C7.85274 14.9086 15.1531 12.9298 17.3768 11.5793C20.15 9.84755 22.4288 0.194512 13.0712 0.281371Z" fill="currentColor"/>
    </symbol>
    <symbol id="goftino" viewBox="0 0 21 24" fill="none" xmlns="http://www.w3.org/2000/svg">
        <path d="M10.3316 1.2854e-08C4.62546 -0.00028156 -0.000304388 4.62549 1.50229e-08 10.3316C1.50229e-08 15.2743 3.50739 19.5221 8.3592 20.4655V24C8.3592 24 20.0912 19.5374 20.5353 11.9368C20.6191 11.4058 20.6614 10.8691 20.6617 10.3316C20.662 4.62608 16.0371 0.000555549 10.3316 1.2854e-08ZM10.3704 3.19415C14.2459 3.19491 17.3873 6.33702 17.3874 10.2127C17.3874 10.4974 17.3684 10.7818 17.3326 11.0643C17.3323 11.0674 17.3326 11.0733 17.3326 11.0762C16.8419 17.5411 8.40871 19.7877 8.40871 19.7877L8.36004 16.9354C5.38906 16.0468 3.35321 13.3137 3.35245 10.2126C3.3526 6.337 6.49405 3.19516 10.3695 3.19415H10.3704ZM7.03803 9.54382C6.76091 9.54384 6.49517 9.65391 6.29922 9.84986C6.10327 10.0458 5.99323 10.3116 5.99322 10.5887C5.99323 10.8658 6.10327 11.1316 6.29922 11.3276C6.49517 11.5235 6.76091 11.6336 7.03803 11.6336C7.31515 11.6336 7.58096 11.5235 7.77692 11.3276C7.97289 11.1316 8.08301 10.8658 8.08302 10.5887C8.08301 10.3116 7.97289 10.0458 7.77692 9.84986C7.58096 9.65391 7.31515 9.54382 7.03803 9.54382ZM10.3704 9.54382C10.0933 9.54384 9.82755 9.65391 9.6316 9.84986C9.43566 10.0458 9.32561 10.3116 9.3256 10.5887C9.32561 10.8658 9.43566 11.1316 9.6316 11.3276C9.82755 11.5235 10.0933 11.6336 10.3704 11.6336C10.6475 11.6336 10.9133 11.5235 11.1093 11.3276C11.3053 11.1316 11.4154 10.8658 11.4154 10.5887C11.4154 10.3116 11.3053 10.0458 11.1093 9.84986C10.9133 9.65391 10.6475 9.54382 10.3704 9.54382ZM13.7028 9.54382C13.4257 9.54384 13.1599 9.65391 12.964 9.84986C12.768 10.0458 12.658 10.3116 12.658 10.5887C12.658 10.8658 12.768 11.1316 12.964 11.3276C13.1599 11.5235 13.4257 11.6336 13.7028 11.6336C13.9799 11.6336 14.2457 11.5235 14.4417 11.3276C14.6377 11.1316 14.7478 10.8658 14.7478 10.5887C14.7478 10.3116 14.6377 10.0458 14.4417 9.84986C14.2457 9.65391 13.9799 9.54382 13.7028 9.54382Z" fill="currentColor"/>
    </symbol>
    <symbol id="telegram" viewBox="0 0 78 79" fill="none" xmlns="http://www.w3.org/2000/svg">
        <path d="M38.9789 0.266846C28.6447 0.266849 18.7339 4.37209 11.4265 11.6794C4.1192 18.9867 0.0139801 28.8976 0.0139771 39.2317C0.0139901 49.5658 4.1192 59.4766 11.4265 66.784C18.7338 74.0913 28.6447 78.1965 38.9789 78.1965C49.313 78.1965 59.2238 74.0913 66.5311 66.784C73.8384 59.4766 77.9436 49.5658 77.9436 39.2317C77.9436 28.8976 73.8384 18.9867 66.5311 11.6794C59.2238 4.3721 49.313 0.266859 38.9789 0.266846ZM57.805 21.6165C57.8639 21.6175 57.9131 21.624 57.9535 21.6316C60.533 22.2158 54.7197 61.0302 52.3657 60.1492C50.0116 59.2682 34.6138 50.0487 34.0082 47.2683C33.4027 44.4879 48.7592 32.6462 47.434 30.9578C46.7447 30.0795 29.3716 45.2675 24.2602 44.2175C19.1487 43.1675 11.9398 41.2602 12.7973 39.3367C13.9817 36.6801 54.0914 21.532 57.805 21.6165Z" fill="currentColor"/>
    </symbol>
    <symbol id="tick-fill" viewBox="0 0 24 24" fill="none" xmlns="http://www.w3.org/2000/svg">
        <path d="M12 2C6.49 2 2 6.49 2 12C2 17.51 6.49 22 12 22C17.51 22 22 17.51 22 12C22 6.49 17.51 2 12 2ZM16.78 9.7L11.11 15.37C10.97 15.51 10.78 15.59 10.58 15.59C10.38 15.59 10.19 15.51 10.05 15.37L7.22 12.54C6.93 12.25 6.93 11.77 7.22 11.48C7.51 11.19 7.99 11.19 8.28 11.48L10.58 13.78L15.72 8.64C16.01 8.35 16.49 8.35 16.78 8.64C17.07 8.93 17.07 9.4 16.78 9.7Z" fill="currentColor"/>
    </symbol>
</svg>