<svg width="80" height="79" viewBox="0 0 80 79" fill="none" xmlns="http://www.w3.org/2000/svg">
<path d="M20.8061 0.0135763C19.507 0.0667286 18.1731 0.276358 16.8217 0.649532C8.44901 2.9654 0 11.7676 0 26.2119C0 27.2851 0.563153 28.2699 1.45952 28.7708C2.35224 29.2679 3.43565 29.2008 4.27202 28.5939C7.05202 26.569 10.6961 27.8454 14.5561 29.196C16.9616 30.0361 19.2293 30.833 21.4311 30.833C26.2838 30.833 30.8635 28.4725 33.6435 24.5825C33.6435 24.3725 33.6308 24.1578 33.6399 23.9767C33.9181 18.9577 32.6046 15.9326 29.7337 14.9943C26.1009 13.7997 20.9317 16.2358 19.7408 18.3359C19.2244 19.2491 18.1115 19.5453 17.2479 18.9982C16.3861 18.451 16.1065 17.266 16.6229 16.3527C18.6681 12.7426 25.398 9.74862 30.5185 11.235L30.5256 11.2388C30.7465 11.3586 30.9819 11.446 31.2251 11.4984C31.2251 11.4984 31.3666 11.5597 31.392 11.5661C31.6313 11.6636 31.8597 11.7458 32.1129 11.8785C32.6017 12.1481 33.2478 12.5919 33.9808 13.3686C35.5263 15.0063 37.2727 17.9655 37.2727 24.0896V38.5397H15.4545C15.0932 38.5343 14.7343 38.605 14.399 38.7478C14.0636 38.8906 13.7584 39.1026 13.501 39.3715C13.2436 39.6404 13.0393 39.9609 12.8998 40.3142C12.7603 40.6675 12.6884 41.0467 12.6884 41.4297C12.6884 41.8127 12.7603 42.1919 12.8998 42.5452C13.0393 42.8985 13.2436 43.219 13.501 43.4879C13.7584 43.7568 14.0636 43.9688 14.399 44.1116C14.7343 44.2544 15.0932 44.3251 15.4545 44.3197H39.5526C39.8453 44.3707 40.144 44.3707 40.4368 44.3197H64.5455C64.9069 44.3251 65.2657 44.2544 65.601 44.1116C65.9364 43.9688 66.2416 43.7568 66.499 43.4879C66.7564 43.219 66.9607 42.8985 67.1002 42.5452C67.2397 42.1919 67.3116 41.8127 67.3116 41.4297C67.3116 41.0467 67.2397 40.6675 67.1002 40.3142C66.9607 39.9609 66.7564 39.6404 66.499 39.3715C66.2416 39.1026 65.9364 38.8906 65.601 38.7478C65.2657 38.605 64.9069 38.5343 64.5455 38.5397H42.7273V24.0896C42.7273 17.9655 44.4737 15.0063 46.0192 13.3686C46.6771 12.6714 47.2477 12.2659 47.7166 11.9876C48.1179 11.7622 48.4896 11.6145 48.8565 11.4758C49.0328 11.4276 49.2042 11.3608 49.3679 11.2764C54.5061 9.68743 61.3508 12.7089 63.4162 16.3527C63.9326 17.266 63.653 18.451 62.7912 18.9982C61.9294 19.5473 60.8147 19.2491 60.2983 18.3359C59.1092 16.2339 53.9381 13.7997 50.3054 14.9943C47.4345 15.9326 46.1032 18.9577 46.3814 23.9767C46.3923 24.1732 46.3672 24.3081 46.3672 24.5374C49.1508 28.4004 53.738 30.833 58.5689 30.833C60.7707 30.833 63.0384 30.0362 65.4439 29.1923C69.3021 27.8417 72.9498 26.5652 75.728 28.5902C76.5625 29.1971 77.6478 29.2661 78.5405 28.767C79.4369 28.268 80 27.2851 80 26.2119C80 11.7676 71.5527 2.96724 63.1818 0.653295C56.5155 -1.19115 50.2439 0.963519 46.7756 6.15111C45.7523 6.54928 43.9095 7.43089 42.1626 9.28197C41.353 10.1399 40.7 11.5884 40 12.8794C39.3 11.5884 38.647 10.1399 37.8374 9.28197C36.0905 7.43089 34.2477 6.54928 33.2244 6.15111C30.4591 2.01676 25.9155 -0.195466 20.8061 0.0135763ZM17.0526 48.1731L19.2969 69.5736C19.8641 74.9471 24.1347 79 29.2365 79H50.7635C55.8653 79 60.1359 74.949 60.7031 69.5736L62.9474 48.1731H17.0526Z" fill="#34D399"/>
</svg>
