<svg viewBox="0 0 104 48" fill="none" xmlns="http://www.w3.org/2000/svg">
    <path fill-rule="evenodd" clip-rule="evenodd" d="M26.5965 0.0081516C24.0912 0.0682461 21.545 0.458629 18.9969 1.21518C6.2077 5.0122 -3.25064 18.4927 1.05349 32.3109C4.15682 42.2739 14.8027 49.6587 25.7293 46.0707C33.5129 43.5146 39.3033 35.0588 36.2723 26.3538C35.2043 23.2869 33.1353 20.7914 30.3562 19.18C27.5773 17.5686 23.8152 16.9388 20.2977 18.2464C18.8885 18.7705 17.7452 19.8328 17.1192 21.1997C16.4933 22.5667 16.4359 24.1263 16.9598 25.5355C17.2193 26.2335 17.6137 26.8735 18.1205 27.419C18.6274 27.9645 19.2368 28.4048 19.9139 28.7148C20.5909 29.0248 21.3224 29.1983 22.0666 29.2255C22.8107 29.2527 23.5529 29.1331 24.2508 28.8734C24.3763 28.8269 24.3373 28.7982 24.6687 28.9905C25.0002 29.1829 25.4308 29.6943 25.5653 30.0804C26.2435 32.0283 24.5428 34.5253 22.1922 35.2972C17.9974 36.6747 13.2716 33.4065 11.8797 28.9378C9.66518 21.8282 14.9819 14.2343 22.2234 12.0843C32.2282 9.11395 42.9219 15.7736 46.6629 25.5707C46.6654 25.5744 46.6679 25.5782 46.6705 25.582C50.9434 36.7589 61.1523 45.311 72.8677 46.8476C76.7743 47.36 80.8474 47.0914 84.9244 45.8808C97.7136 42.0837 107.172 28.6034 102.868 14.7851C99.7644 4.82208 89.1186 -2.56281 78.192 1.02532C70.4084 3.58134 64.6179 12.0372 67.649 20.7421C68.7169 23.809 70.786 26.3026 73.565 27.914C76.344 29.5254 80.1061 30.1572 83.6236 28.8495C85.0328 28.3255 86.176 27.2632 86.802 25.8962C87.4279 24.5293 87.4853 22.9697 86.9615 21.5605C86.702 20.8625 86.3076 20.2225 85.8007 19.677C85.2938 19.1315 84.6845 18.6912 84.0074 18.3812C83.3304 18.0712 82.5989 17.8977 81.8547 17.8705C81.1106 17.8433 80.3684 17.9629 79.6705 18.2226C79.545 18.2691 79.5839 18.2978 79.2525 18.1054C78.921 17.9131 78.4924 17.3997 78.358 17.0137C77.6797 15.0658 79.3804 12.5707 81.731 11.7988C85.9258 10.4213 90.6496 13.6895 92.0416 18.1582C94.2561 25.2678 88.9393 32.8617 81.6978 35.0117C71.6931 37.982 60.9993 31.3224 57.2584 21.5254C57.2559 21.5216 57.2534 21.5178 57.2508 21.514C52.9779 10.3371 42.7689 1.78305 31.0535 0.246448C29.5886 0.0544482 28.0997 -0.0281319 26.5965 0.0081516Z" fill="#34D399"/>
</svg>